<svg width="42" height="42" viewBox="0 0 42 42" fill="none" xmlns="http://www.w3.org/2000/svg">
<path d="M20.9312 40.0332H3.04093C2.60959 40.0332 2.19591 39.8618 1.89091 39.5568C1.5859 39.2518 1.41455 38.8381 1.41455 38.4068V20.5165C1.41455 17.9536 1.91936 15.4157 2.90016 13.0479C3.88096 10.68 5.31853 8.52854 7.13081 6.71626C8.94309 4.90398 11.0946 3.4664 13.4624 2.48561C15.8303 1.50481 18.3681 1 20.9311 1H20.9311C23.4941 1 26.0319 1.50481 28.3998 2.48561C30.7677 3.46641 32.9191 4.90399 34.7314 6.71627C36.5437 8.52855 37.9813 10.68 38.9621 13.0479C39.9429 15.4158 40.4477 17.9536 40.4477 20.5166V20.5166C40.4477 25.6927 38.3915 30.6568 34.7314 34.3169C31.0714 37.9769 26.1073 40.0332 20.9312 40.0332Z" stroke="white" stroke-width="2" stroke-linecap="round" stroke-linejoin="round"/>
<path d="M20.9314 23.9126C22.3373 23.9126 23.477 22.7728 23.477 21.3669C23.477 19.961 22.3373 18.8213 20.9314 18.8213C19.5255 18.8213 18.3857 19.961 18.3857 21.3669C18.3857 22.7728 19.5255 23.9126 20.9314 23.9126Z" fill="white"/>
<path d="M10.7488 23.9126C12.1547 23.9126 13.2944 22.7728 13.2944 21.3669C13.2944 19.961 12.1547 18.8213 10.7488 18.8213C9.34285 18.8213 8.20312 19.961 8.20312 21.3669C8.20312 22.7728 9.34285 23.9126 10.7488 23.9126Z" fill="white"/>
<path d="M31.1135 23.9126C32.5194 23.9126 33.6592 22.7728 33.6592 21.3669C33.6592 19.961 32.5194 18.8213 31.1135 18.8213C29.7076 18.8213 28.5679 19.961 28.5679 21.3669C28.5679 22.7728 29.7076 23.9126 31.1135 23.9126Z" fill="white"/>
</svg>
