<svg width="30" height="24" viewBox="0 0 30 24" fill="none" xmlns="http://www.w3.org/2000/svg">
<path d="M11 15.5C11.8284 15.5 12.5 14.8284 12.5 14C12.5 13.1716 11.8284 12.5 11 12.5C10.1716 12.5 9.5 13.1716 9.5 14C9.5 14.8284 10.1716 15.5 11 15.5Z" fill="#81B5FF"/>
<path d="M19 15.5C19.8284 15.5 20.5 14.8284 20.5 14C20.5 13.1716 19.8284 12.5 19 12.5C18.1716 12.5 17.5 13.1716 17.5 14C17.5 14.8284 18.1716 15.5 19 15.5Z" fill="#81B5FF"/>
<path d="M8.30029 6.00005C10.4682 5.3215 12.7285 4.98414 15.0001 5.00005C17.2716 4.98414 19.5319 5.32149 21.6998 6.00001" stroke="#81B5FF" stroke-width="2" stroke-linecap="round" stroke-linejoin="round"/>
<path d="M21.6996 18C19.5317 18.6785 17.2715 19.0159 15 19C12.7284 19.0159 10.4682 18.6785 8.30029 18" stroke="#81B5FF" stroke-width="2" stroke-linecap="round" stroke-linejoin="round"/>
<path d="M18.3804 18.761L19.8835 21.7673C19.9837 21.9692 20.1494 22.1312 20.3535 22.2268C20.5577 22.3224 20.7882 22.3459 21.0074 22.2934C24.0748 21.5435 26.719 20.236 28.645 18.5621C28.792 18.4356 28.8994 18.2694 28.9543 18.0833C29.0091 17.8973 29.009 17.6994 28.9539 17.5134L24.7072 3.35758C24.6643 3.21484 24.5902 3.08345 24.4902 2.97298C24.3901 2.8625 24.2667 2.77572 24.1289 2.71895C22.9291 2.22773 21.6883 1.84361 20.4208 1.57108C20.1793 1.51817 19.9268 1.55637 19.7118 1.67834C19.4968 1.80032 19.3344 1.99746 19.2559 2.23189L18.2593 5.22184" stroke="#81B5FF" stroke-width="2" stroke-linecap="round" stroke-linejoin="round"/>
<path d="M11.6193 18.7609L10.1161 21.7673C10.016 21.9692 9.85028 22.1312 9.64613 22.2268C9.44199 22.3224 9.21146 22.3458 8.99223 22.2934C5.9249 21.5435 3.28064 20.2361 1.35472 18.5621C1.20765 18.4356 1.10025 18.2694 1.04543 18.0833C0.990613 17.8973 0.990718 17.6994 1.04573 17.5134L5.29246 3.35757C5.33533 3.21483 5.40948 3.08345 5.50952 2.97297C5.60956 2.8625 5.73297 2.77571 5.87078 2.71894C7.07053 2.22772 8.31138 1.84361 9.57883 1.57108C9.82031 1.51817 10.0728 1.55637 10.2879 1.67834C10.5029 1.80032 10.6652 1.99746 10.7437 2.23189L11.7404 5.22184" stroke="#81B5FF" stroke-width="2" stroke-linecap="round" stroke-linejoin="round"/>
<path d="M11 15.5C11.8284 15.5 12.5 14.8284 12.5 14C12.5 13.1716 11.8284 12.5 11 12.5C10.1716 12.5 9.5 13.1716 9.5 14C9.5 14.8284 10.1716 15.5 11 15.5Z" fill="#81B5FF"/>
<path d="M19 15.5C19.8284 15.5 20.5 14.8284 20.5 14C20.5 13.1716 19.8284 12.5 19 12.5C18.1716 12.5 17.5 13.1716 17.5 14C17.5 14.8284 18.1716 15.5 19 15.5Z" fill="#81B5FF"/>
<path d="M8.30029 6.00005C10.4682 5.3215 12.7285 4.98414 15.0001 5.00005C17.2716 4.98414 19.5319 5.32149 21.6998 6.00001" stroke="#81B5FF" stroke-width="2" stroke-linecap="round" stroke-linejoin="round"/>
<path d="M21.6996 18C19.5317 18.6785 17.2715 19.0159 15 19C12.7284 19.0159 10.4682 18.6785 8.30029 18" stroke="#81B5FF" stroke-width="2" stroke-linecap="round" stroke-linejoin="round"/>
<path d="M18.3804 18.761L19.8835 21.7673C19.9837 21.9692 20.1494 22.1312 20.3535 22.2268C20.5577 22.3224 20.7882 22.3459 21.0074 22.2934C24.0748 21.5435 26.719 20.236 28.645 18.5621C28.792 18.4356 28.8994 18.2694 28.9543 18.0833C29.0091 17.8973 29.009 17.6994 28.9539 17.5134L24.7072 3.35758C24.6643 3.21484 24.5902 3.08345 24.4902 2.97298C24.3901 2.8625 24.2667 2.77572 24.1289 2.71895C22.9291 2.22773 21.6883 1.84361 20.4208 1.57108C20.1793 1.51817 19.9268 1.55637 19.7118 1.67834C19.4968 1.80032 19.3344 1.99746 19.2559 2.23189L18.2593 5.22184" stroke="#81B5FF" stroke-width="2" stroke-linecap="round" stroke-linejoin="round"/>
<path d="M11.6193 18.7609L10.1161 21.7673C10.016 21.9692 9.85028 22.1312 9.64613 22.2268C9.44199 22.3224 9.21146 22.3458 8.99223 22.2934C5.9249 21.5435 3.28064 20.2361 1.35472 18.5621C1.20765 18.4356 1.10025 18.2694 1.04543 18.0833C0.990613 17.8973 0.990718 17.6994 1.04573 17.5134L5.29246 3.35757C5.33533 3.21483 5.40948 3.08345 5.50952 2.97297C5.60956 2.8625 5.73297 2.77571 5.87078 2.71894C7.07053 2.22772 8.31138 1.84361 9.57883 1.57108C9.82031 1.51817 10.0728 1.55637 10.2879 1.67834C10.5029 1.80032 10.6652 1.99746 10.7437 2.23189L11.7404 5.22184" stroke="#81B5FF" stroke-width="2" stroke-linecap="round" stroke-linejoin="round"/>
</svg>
