<svg width="24" height="27" viewBox="0 0 24 27" fill="none" xmlns="http://www.w3.org/2000/svg">
<path d="M6.5 26C7.29565 26 8.05871 25.6839 8.62132 25.1213C9.18393 24.5587 9.5 23.7956 9.5 23V17" stroke="#87BF67" stroke-width="2" stroke-linecap="round" stroke-linejoin="round"/>
<path d="M17.5 26C16.7044 26 15.9413 25.6839 15.3787 25.1213C14.8161 24.5587 14.5 23.7956 14.5 23V17" stroke="#87BF67" stroke-width="2" stroke-linecap="round" stroke-linejoin="round"/>
<path d="M15 17H17C17.7956 17 18.5587 17.3161 19.1213 17.8787C19.6839 18.4413 20 19.2044 20 20V21C20 21.7956 20.3161 22.5587 20.8787 23.1213C21.4413 23.6839 22.2044 24 23 24" stroke="#87BF67" stroke-width="2" stroke-linecap="round" stroke-linejoin="round"/>
<path d="M9 17H7C6.20435 17 5.44129 17.3161 4.87868 17.8787C4.31607 18.4413 4 19.2044 4 20V21C4 21.7956 3.68393 22.5587 3.12132 23.1213C2.55871 23.6839 1.79565 24 1 24" stroke="#87BF67" stroke-width="2" stroke-linecap="round" stroke-linejoin="round"/>
<path d="M4.06396 6.58797C3.71428 5.6832 3.57192 4.71153 3.64739 3.74447C3.72285 2.77741 4.0142 1.83958 4.50001 1C5.59164 0.999379 6.66583 1.27391 7.6233 1.79823C8.58078 2.32256 9.39065 3.07975 9.97809 3.99985V4H14.0219V3.99985C14.6094 3.07975 15.4192 2.32256 16.3767 1.79823C17.3342 1.27391 18.4084 0.999379 19.5 1C19.9858 1.83958 20.2772 2.77741 20.3526 3.74447C20.4281 4.71153 20.2857 5.6832 19.9361 6.58797V6.58797C20.6307 7.59004 21.002 8.78072 21 10V11C21 12.5913 20.3679 14.1174 19.2426 15.2426C18.1174 16.3679 16.5913 17 15 17H9.00001C7.40871 17 5.88259 16.3679 4.75737 15.2426C3.63215 14.1174 3.00001 12.5913 3.00001 11V10C2.99805 8.78071 3.36933 7.59004 4.06396 6.58797L4.06396 6.58797Z" stroke="#87BF67" stroke-width="2" stroke-linecap="round" stroke-linejoin="round"/>
</svg>
