<svg width="41" height="36" viewBox="0 0 41 36" fill="none" xmlns="http://www.w3.org/2000/svg">
<path d="M20.5 35C20.5 35 1 24.1818 1 11.0455C1.0004 8.72368 1.81247 6.47369 3.29816 4.67803C4.78385 2.88238 6.85145 1.65189 9.14942 1.19579C11.4474 0.739683 13.8339 1.08611 15.9032 2.17617C17.9725 3.26623 19.5968 5.03264 20.5 7.17507L20.5 7.17509C21.4032 5.03265 23.0275 3.26624 25.0968 2.17618C27.1661 1.08611 29.5526 0.739684 31.8506 1.19579C34.1485 1.65189 36.2161 2.88237 37.7018 4.67803C39.1875 6.47369 39.9996 8.72368 40 11.0455C40 24.1818 20.5 35 20.5 35Z" stroke="white" stroke-width="2" stroke-linecap="round" stroke-linejoin="round"/>
</svg>
